<svg viewBox="0 0 447 128" xmlns="http://www.w3.org/2000/svg"><path d="M154.7 70.8c-3.8-2.1-5.8-3.8-5.8-6.2 0-3.1 2.7-5 7-5 5 0 9.4 2 9.4 2l3.5-10.6s-3.2-2.5-12.7-2.5c-13.2 0-22.4 7.6-22.4 18.2 0 6 4.3 10.6 10 13.9 4.6 2.6 6.2 4.5 6.2 7.2 0 2.9-2.3 5.2-6.6 5.2-6.4 0-12.4-3.3-12.4-3.3l-3.7 10.7s5.6 3.7 15 3.7c13.5 0 23.2-6.7 23.2-18.7.2-6.6-4.8-11.2-10.7-14.6zM209 48.3c-6.8 0-12 3.2-16 8l-.3-.1 5.8-30.4h-15.2L168.6 103h15.1l5-26.4c2-10 7.1-16.1 12-16.1 3.3 0 4.6 2.3 4.6 5.6 0 2-.2 4.6-.7 6.7l-5.7 30.3H214l6-31.2c.6-3.3 1-7.2 1-10 .2-8.6-4.2-13.7-12-13.7zm46.4 0c-18.2 0-30.3 16.4-30.3 34.7 0 11.7 7.2 21.2 20.8 21.2 18 0 30-16 30-34.7 0-11-6.3-21.2-20.5-21.2zM248 92.5c-5.2 0-7.3-4.4-7.3-10 0-8.6 4.5-22.7 12.7-22.7 5.4 0 7.1 4.6 7.1 9 0 9.5-4.5 23.7-12.5 23.7zm66.6-44.2c-10.2 0-16 9-16 9h-.2l1-8.1h-13.5c-.7 5.5-1.9 13.8-3 20l-10.6 55.3h15.1l4.2-22.4h.3s3.1 2 9 2c17.7 0 29.3-18.2 29.3-36.6 0-10.1-4.5-19.2-15.6-19.2zm-14.4 44.5c-3.9 0-6.2-2.2-6.2-2.2l2.5-14.1c1.8-9.4 6.7-15.7 12-15.7 4.5 0 6 4.3 6 8.3 0 9.7-5.9 23.7-14.3 23.7zm51.6-66.2a8.7 8.7 0 00-8.7 8.8c0 4.5 2.8 7.6 7.1 7.6h.2c4.7 0 8.8-3.2 9-8.8 0-4.5-3-7.6-7.6-7.6zM330.6 103h15.2l10.3-53.5h-15.3zm63.9-53.6H384l.5-2.5c1-5.2 4-9.8 9-9.8 2.7 0 4.8.8 4.8.8l3-11.8s-2.6-1.3-8.2-1.3c-5.4 0-10.7 1.5-14.8 5a28.4 28.4 0 00-8.8 17l-.4 2.6h-7L360 60.8h7l-8 42.3h15l8-42.3h10.4l2.1-11.4zm36.5.1s-9.6 23.8-13.8 36.8h-.2c-.3-4.2-3.7-36.8-3.7-36.8h-15.9l9.1 49.2c.2 1 .1 1.8-.3 2.5a26.2 26.2 0 01-8.2 9c-2.8 2.2-6 3.5-8.5 4.4l4.2 12.8c3.1-.7 9.4-3.2 14.8-8.2 7-6.5 13.3-16.4 19.8-30l18.5-39.7H431zM75.1 14.7l-3.7 1c-.4-1.2-1-2.7-1.8-4.3-2.6-5-6.5-7.7-11-7.7h-1l-.5-.4A9.5 9.5 0 0049.4.2c-6 .2-12 4.5-16.8 12.2-3.4 5.4-6 12.2-6.7 17.5-6.9 2-11.7 3.6-11.8 3.7-3.5 1-3.6 1.2-4 4.5L.6 111l75.6 13V14.7h-1zM57.6 20L45 24c1.2-4.7 3.6-9.4 6.4-12.5a16 16 0 014.3-3.2 28 28 0 012 11.8zM49.4 4.3c1.4 0 2.6.3 3.6.9a19 19 0 00-4.7 3.6 35.7 35.7 0 00-7.9 16.6L30 28.6C32.1 19 40.2 4.5 49.4 4.3zm-11.6 55c.4 6.4 17.3 7.8 18.3 22.9.7 11.9-6.3 20-16.4 20.6-12.2.8-18.9-6.4-18.9-6.4l2.6-11s6.7 5 12.1 4.7a4.8 4.8 0 004.7-5.1C39.7 76.6 26 77 25 63.3c-.8-11.6 6.8-23.3 23.6-24.4 6.5-.4 9.8 1.2 9.8 1.2l-3.8 14.4s-4.3-2-9.4-1.6c-7.4.5-7.5 5.2-7.4 6.4zm23.8-40.4c0-3-.4-7.3-1.8-11 4.6 1 6.8 6 7.8 9.2-1.8.5-3.8 1-6 1.8zm16.9 105L110 116 96.3 24c0-.5-.6-1-1-1l-9.4-.1-7.4-7.2v108z" fill="#919EAB" fill-rule="evenodd"/></svg>